<?xml version="1.0" encoding="iso-8859-1"?>
<!-- Generator: Adobe Illustrator 19.0.0, SVG Export Plug-In . SVG Version: 6.00 Build 0)  -->
<svg version="1.1" id="Capa_1" xmlns="http://www.w3.org/2000/svg" xmlns:xlink="http://www.w3.org/1999/xlink" x="0px" y="0px"
	 viewBox="0 0 512.001 512.001" style="enable-background:new 0 0 512.001 512.001;" xml:space="preserve">
<path style="fill:#82635A;" d="M110.17,227.764c-4.158,0-7.528,3.371-7.528,7.528c0,4.612-1.852,8.892-5.215,12.053
	c-3.36,3.157-7.777,4.739-12.39,4.449c-8.149-0.505-14.928-7.285-15.434-15.433c-0.497-8.018,4.776-15.223,12.538-17.129
	c6.768-1.661,11.493-7.758,11.493-14.824v-97.611c0-4.158-3.37-7.528-7.528-7.528s-7.528,3.371-7.528,7.528v97.611
	c0,0.127-0.047,0.209-0.03,0.203c-14.84,3.646-24.92,17.391-23.972,32.683c0.984,15.85,13.678,28.544,29.528,29.528
	c0.681,0.043,1.36,0.064,2.035,0.064c8.071,0,15.677-3.002,21.599-8.569c6.33-5.949,9.96-14.341,9.96-23.024
	C117.698,231.133,114.328,227.764,110.17,227.764z"/>
<path style="fill:#FFB125;" d="M75.273,112.877c-7.708-8.122-7.845-21.035-0.275-29.358c3.847-4.229,9.112-6.727,14.824-7.033
	c5.218-0.28,10.356,1.342,14.472,4.566L284.009,225.18c7.946,6.372,8.869,18.127,2.015,25.661l-24.193,26.597
	c-6.844,7.524-18.612,7.727-25.711,0.444L75.273,112.877z"/>
<path style="fill:#FFBF14;" d="M243.984,219.779c2.117-1.261,2.338-4.235,0.416-5.777L94.339,93.656
	c-0.962-0.736-2.153-1.141-3.361-1.141c-0.099,0-0.198,0.002-0.297,0.008c-1.487,0.08-2.802,0.703-3.802,1.802
	c-1.892,2.08-1.888,5.405-0.004,7.445l132.92,136.357c1.557,1.597,4.201,1.375,5.435-0.483
	C230.058,230.377,236.474,224.254,243.984,219.779z"/>
<path style="fill:#2C5871;" d="M231.603,341.283v-71.586c0-23.158,18.841-41.999,41.999-41.999c23.159,0,42,18.841,42,41.999v71.586
	H231.603z"/>
<path style="fill:#45748C;" d="M145.035,320.73l-0.725-1.675c-5.681-15.167-20.177-25.216-36.373-25.216H65.279
	c-16.196,0-30.692,10.05-36.373,25.216l-0.725,1.675H7.413c-4.094,0-7.413,3.319-7.413,7.413v48.1c0,0.825,0.051,1.649,0.151,2.467
	l0,0c0.917,6.33,6.35,11.198,12.934,11.198h473.72c13.573,0,24.576-11.003,24.576-24.576v-44.601H145.035V320.73z"/>
<path style="fill:#3C6A7C;" d="M486.805,389.907c13.573,0,25.195-11.003,25.195-24.576V232.727c0-4.974-1.96-9.748-5.456-13.287
	l-53.85-54.514c-3.552-3.596-8.396-5.62-13.451-5.62h-96.97c-9.741,0-17.638,7.897-17.638,17.638v212.964L486.805,389.907
	L486.805,389.907z"/>
<path style="fill:#305B68;" d="M506.544,219.439l-53.85-54.514c-3.552-3.596-8.396-5.62-13.451-5.62H393.74
	c5.055,0,9.899,2.024,13.451,5.62l53.85,54.514c3.496,3.539,5.456,8.313,5.456,13.287v132.604c0,13.573-11.622,24.576-25.195,24.576
	h45.504c13.573,0,25.195-11.003,25.195-24.576V232.727C512,227.752,510.04,222.979,506.544,219.439z"/>
<path style="fill:#2DE8E8;" d="M357.323,270.603v-71.649c0-4.312,3.496-7.808,7.808-7.808h64.943c2.087,0,4.088,0.836,5.555,2.321
	l41.431,41.943c1.444,1.461,2.253,3.433,2.253,5.487v29.707c0,4.312-3.496,7.808-7.808,7.808H365.131
	C360.819,278.411,357.323,274.915,357.323,270.603z"/>
<g>
	<circle style="fill:#1D4859;" cx="423.25" cy="384.301" r="51.24"/>
	<circle style="fill:#1D4859;" cx="86.11" cy="384.301" r="51.24"/>
</g>
<path style="fill:#193D4B;" d="M86.106,435.547c28.302,0,51.245-22.943,51.245-51.245c0-14.151-5.736-26.962-15.009-36.236
	l-72.471,72.471C59.144,429.811,71.955,435.547,86.106,435.547z"/>
<circle style="fill:#E1EFFB;" cx="86.11" cy="384.301" r="23.619"/>
<circle style="fill:#FF901D;" cx="273.6" cy="268.811" r="15.676"/>
<path style="fill:#193D4B;" d="M423.251,435.547c28.302,0,51.245-22.943,51.245-51.245c0-14.151-5.736-26.962-15.009-36.236
	l-72.471,72.471C396.289,429.811,409.1,435.547,423.251,435.547z"/>
<circle style="fill:#E1EFFB;" cx="423.25" cy="384.301" r="23.619"/>
<path style="fill:#305B68;" d="M299.734,370.811h-70.418h-49.729h-19.435c-4.142,0-7.499-3.357-7.499-7.499v-13.94
	c0-4.142,3.357-7.499,7.499-7.499h139.581c4.142,0,7.499,3.357,7.499,7.499v13.94C307.233,367.454,303.876,370.811,299.734,370.811z
	"/>
<path style="fill:#1D4859;" d="M376.493,295.11h-19.169c-4.158,0-7.528,3.371-7.528,7.528s3.37,7.528,7.528,7.528h19.169
	c4.158,0,7.528-3.371,7.528-7.528S380.651,295.11,376.493,295.11z"/>
<g>
</g>
<g>
</g>
<g>
</g>
<g>
</g>
<g>
</g>
<g>
</g>
<g>
</g>
<g>
</g>
<g>
</g>
<g>
</g>
<g>
</g>
<g>
</g>
<g>
</g>
<g>
</g>
<g>
</g>
</svg>
