<?xml version="1.0" encoding="iso-8859-1"?>
<!-- Generator: Adobe Illustrator 19.0.0, SVG Export Plug-In . SVG Version: 6.00 Build 0)  -->
<svg version="1.1" id="Capa_1" xmlns="http://www.w3.org/2000/svg" xmlns:xlink="http://www.w3.org/1999/xlink" x="0px" y="0px"
	 viewBox="0 0 512 512" style="enable-background:new 0 0 512 512;" xml:space="preserve">
<polygon style="fill:#A0EBFF;" points="386.898,143.307 317.992,143.307 317.992,230.687 436.911,230.687 "/>
<polygon style="fill:#6EE1FF;" points="396.643,160.334 386.898,143.307 317.992,143.307 317.992,160.334 "/>
<g>
	<polygon style="opacity:0.5;fill:#FFFFFF;enable-background:new    ;" points="378.192,150.3 358.689,150.3 325.348,223.294 
		344.851,223.294 	"/>
	<polygon style="opacity:0.74;fill:#FFFFFF;enable-background:new    ;" points="394.863,150.3 384.251,150.3 350.909,223.294 
		361.521,223.294 	"/>
</g>
<path style="fill:#373C41;" d="M177.583,103.302c-11.882,0-21.549-9.667-21.549-21.549c0-3.683,2.986-6.669,6.669-6.669
	c3.682,0,6.669,2.986,6.669,6.669c0,4.528,3.685,8.212,8.212,8.212c4.528,0,8.211-3.684,8.211-8.212s-3.684-8.212-8.211-8.212
	c-3.682,0-6.669-2.986-6.669-6.669v-45.01c0-3.683,2.986-6.669,6.669-6.669c3.682,0,6.669,2.986,6.669,6.669V61.26
	c8.628,2.815,14.88,10.938,14.88,20.493C199.131,93.635,189.466,103.302,177.583,103.302z"/>
<path style="fill:#50555A;" d="M276.939,288.864c-6.732,0-12.19-5.457-12.19-12.19V119.902L174.56,30.519
	c-4.782-4.74-4.817-12.458-0.078-17.24c4.74-4.782,12.459-4.816,17.239-0.077l93.798,92.959c2.31,2.289,3.61,5.406,3.61,8.658
	v161.855C289.129,283.407,283.671,288.864,276.939,288.864z"/>
<path style="fill:#FA870A;" d="M512,266.216c0-23.71-19.217-42.922-42.927-42.922h-22.479l-48.263-86.186
	c-3.866-6.901-11.182-11.189-19.094-11.189h-66.08c-6.732,0-12.19,5.457-12.19,12.19c0.002,8.211,0.024,97.816,0.032,131.801H11.314
	C5.065,269.91,0,274.975,0,281.223v37.517c0,6.248,5.065,11.314,11.314,11.314h489.372c6.248,0,11.314-5.066,11.314-11.314V266.216z
	 M377.773,150.3l40.877,72.994h-93.302V150.3H377.773z"/>
<g>
	<rect y="313.042" style="fill:#FA690F;" width="511.997" height="22.032"/>
	<path style="fill:#FA690F;" d="M55.766,330.054h117.315l0,0c0-33.089-26.824-59.913-59.914-59.913
		c-33.069,0-59.88,26.793-59.912,59.854C54.811,330.031,55.766,330.054,55.766,330.054z"/>
</g>
<circle style="fill:#373C41;" cx="113.169" cy="330.541" r="43.211"/>
<circle style="fill:#696E73;" cx="113.169" cy="330.541" r="17.503"/>
<path style="fill:#82878C;" d="M113.168,313.041v35.006c9.667,0,17.503-7.837,17.503-17.503
	C130.67,320.877,122.834,313.041,113.168,313.041z"/>
<path style="fill:#FA690F;" d="M332.501,330.054h117.315l0,0c0-33.089-26.824-59.913-59.914-59.913
	c-33.069,0-59.88,26.793-59.912,59.854C331.546,330.031,332.501,330.054,332.501,330.054z"/>
<circle style="fill:#373C41;" cx="389.902" cy="330.541" r="43.211"/>
<circle style="fill:#696E73;" cx="389.902" cy="330.541" r="17.503"/>
<path style="fill:#82878C;" d="M389.902,313.041v35.006c9.667,0,17.503-7.837,17.503-17.503
	C407.405,320.877,399.569,313.041,389.902,313.041z"/>
<path style="fill:#A0EBFF;" d="M34.381,171.565H174.77l-29.705-49.042H43.778l-10.729,49.113
	C33.49,171.595,33.933,171.565,34.381,171.565z"/>
<polygon style="fill:#6EE1FF;" points="148.5,128.736 143.646,120.722 44.289,120.722 42.539,128.736 "/>
<g>
	<polygon style="opacity:0.5;fill:#FFFFFF;enable-background:new    ;" points="52.736,171.565 77.595,122.524 64.373,122.524 
		39.514,171.565 	"/>
	<polygon style="opacity:0.5;fill:#FFFFFF;enable-background:new    ;" points="103.311,171.565 128.17,122.524 114.948,122.524 
		90.088,171.565 	"/>
	<polygon style="opacity:0.61;fill:#FFFFFF;enable-background:new    ;" points="114.198,171.565 139.057,122.524 132.447,122.524 
		107.587,171.565 	"/>
</g>
<path style="fill:#50555A;" d="M34.05,243.437H4.133c-0.996,0-1.804-0.808-1.804-1.804v-9.141c0-0.996,0.808-1.804,1.804-1.804
	H34.05C34.05,230.687,34.05,243.437,34.05,243.437z"/>
<path style="fill:#2896FF;" d="M242.92,188.648c0-14.433-11.699-26.137-26.132-26.137h-39.133l-25.596-45.979
	c-2.354-4.202-6.808-6.814-11.625-6.814H45.396c-6.206,0-11.679,4.399-13.013,10.462l-13.907,61.645v61.227
	c0.42,0.027,16.959,0.417,16.959,0.417c141.391-0.62,200.157,1.114,207.485-0.973C242.92,238.181,242.92,206.681,242.92,188.648z
	 M164.429,169.007h-7.349v0.091H91.277v-44.533h48.264L164.429,169.007z M46.618,124.564h29.815v44.533H36.821L46.618,124.564z"/>
<path style="fill:#1E87DC;" d="M253.193,228.058c0,8.511-6.899,15.411-15.411,15.411H17.784c-3.475,0-6.292-2.818-6.292-6.292
	v-18.237c0-3.475,2.818-6.292,6.292-6.292h219.998C246.294,212.648,253.193,219.547,253.193,228.058z"/>
<path style="fill:#1E73BE;" d="M117.191,188.93h-15.907c-2.99,0-5.413-2.424-5.413-5.414c0-2.99,2.423-5.414,5.413-5.414h15.907
	c2.99,0,5.413,2.424,5.413,5.414C122.604,186.507,120.181,188.93,117.191,188.93z"/>
<path style="fill:#1E87DC;" d="M231.746,190.082c-5.508,0-9.971,4.465-9.971,9.971c0,5.508,4.465,9.972,9.971,9.972h11.174
	c0-3.894,0-15.686,0-19.944H231.746z"/>
<path style="fill:#FAC855;" d="M242.809,186.295h-11.063c-5.508,0-9.971,4.465-9.971,9.971c0,5.508,4.465,9.972,9.971,9.972h11.174
	c0-3.643,0-14.037,0-17.589C242.92,187.854,242.877,187.07,242.809,186.295z"/>
<path style="fill:#FF640A;" d="M29.75,209.736c0,1.608-1.303,2.911-2.911,2.911h-8.363V188.93h8.363
	c1.608,0,2.911,1.303,2.911,2.911C29.75,191.841,29.75,209.736,29.75,209.736z"/>
<path style="fill:#1E73BE;" d="M160.455,243.469h64.674l0,0c0-18.241-14.788-33.029-33.03-33.029
	c-18.23,0-33.011,14.771-33.029,32.997C159.928,243.457,160.455,243.469,160.455,243.469z"/>
<circle style="fill:#373C41;" cx="192.103" cy="243.466" r="25.52"/>
<circle style="fill:#696E73;" cx="192.103" cy="243.466" r="10.337"/>
<path style="fill:#82878C;" d="M192.099,233.132v20.674c5.709,0,10.337-4.628,10.337-10.337
	C202.436,237.76,197.808,233.132,192.099,233.132z"/>
<g>
	<rect x="76.432" y="124.561" style="fill:#1E87DC;" width="14.844" height="4.019"/>
	<rect x="36.821" y="169.1" style="fill:#1E87DC;" width="125.305" height="4.367"/>
</g>
<path style="fill:#1E73BE;" d="M173.081,162.506c0,6.053-4.907,10.96-10.96,10.96h-10.96v-21.919h10.96
	C168.174,151.546,173.081,156.453,173.081,162.506L173.081,162.506z"/>
<g>
	<path style="fill:#1E87DC;" d="M238.434,173.999c-4.698-6.934-12.64-11.493-21.648-11.493h-39.133
		c4.37,7.14,12.14,11.493,20.511,11.493H238.434z"/>
	<rect x="81.35" y="171.284" style="fill:#1E87DC;" width="4.259" height="44.841"/>
</g>
<path style="fill:#1E73BE;" d="M35.434,243.469h64.674l0,0c0-18.241-14.788-33.029-33.03-33.029
	c-18.23,0-33.011,14.771-33.029,32.997C34.908,243.457,35.434,243.469,35.434,243.469z"/>
<circle style="fill:#373C41;" cx="67.08" cy="243.466" r="25.52"/>
<circle style="fill:#696E73;" cx="67.08" cy="243.466" r="10.337"/>
<path style="fill:#82878C;" d="M67.078,233.132v20.674c5.709,0,10.337-4.628,10.337-10.337
	C77.416,237.76,72.788,233.132,67.078,233.132z"/>
<path style="fill:#696E73;" d="M138.656,100.221c0,1.594-1.292,2.886-2.886,2.886H49.175c-1.594,0-2.886-1.292-2.886-2.886l0,0
	c0-1.594,1.292-2.886,2.886-2.886h86.594C137.363,97.334,138.656,98.627,138.656,100.221L138.656,100.221z"/>
<g>
	<path style="fill:#82878C;" d="M62.642,109.72h-6.319V95.623c0-1.745,1.415-3.159,3.159-3.159c1.744,0,3.159,1.415,3.159,3.159
		v14.097H62.642z"/>
	<path style="fill:#82878C;" d="M128.621,109.72h-6.319V95.623c0-1.745,1.415-3.159,3.159-3.159c1.745,0,3.159,1.415,3.159,3.159
		v14.097H128.621z"/>
</g>
<path style="fill:#FA690F;" d="M477.269,274.734c0,9.046,7.333,16.379,16.378,16.379h18.352v-18.227
	c0-5.101-0.895-9.991-2.527-14.529h-15.826C484.602,258.356,477.269,265.688,477.269,274.734z"/>
<path style="fill:#FFA50A;" d="M477.269,268.065c0,9.046,7.333,16.379,16.378,16.379h18.352v-18.227
	c0-5.101-0.895-9.991-2.527-14.529h-15.826C484.602,251.687,477.269,259.02,477.269,268.065z"/>
<path style="fill:#EB630E;" d="M429.764,213.786c0,5.179-4.198,9.378-9.378,9.378h-13.778v-48.478h13.778
	c5.179,0,9.378,4.198,9.378,9.378V213.786z"/>
<path id="SVGCleanerId_0" style="fill:#FFB69E;" d="M411.144,243.329c-0.094-18.661-15.097-33.843-33.758-33.843
	c-42.307,0-45.172,0-73.043,0c-12.488,0-24.267,5.475-32.317,15.022l-26.576,31.518l-29.628,4.809l-4.905-9.034
	c-1.772-3.263-5.855-4.471-9.113-2.699c-3.262,1.771-4.47,5.851-2.699,9.113l2.661,4.901l-1.43,0.232
	c-7.835,1.272-13.155,8.655-11.884,16.49c1.268,7.805,8.616,13.156,16.49,11.884l50.367-8.176c3.389-0.55,6.471-2.296,8.684-4.922
	l30.008-35.587c1.727-2.049,4.003-3.494,6.512-4.235v246.279c0,9.525,7.722,17.247,17.247,17.247s17.247-7.722,17.247-17.247
	v-137.77h7.448v137.77c0,9.525,7.722,17.247,17.247,17.247s17.247-7.722,17.247-17.247V238.232h0.435
	c2.89,0,4.998,2.351,5.012,5.133v105.591c-0.018,7.938,6.4,14.388,14.339,14.408c0.012,0,0.023,0,0.036,0
	c7.921,0,14.353-6.412,14.372-14.339L411.144,243.329L411.144,243.329z"/>
<circle style="fill:#FFB69E;" cx="338.732" cy="170.207" r="29.788"/>
<g>
	<path id="SVGCleanerId_0_1_" style="fill:#FFB69E;" d="M411.144,243.329c-0.094-18.661-15.097-33.843-33.758-33.843
		c-42.307,0-45.172,0-73.043,0c-12.488,0-24.267,5.475-32.317,15.022l-26.576,31.518l-29.628,4.809l-4.905-9.034
		c-1.772-3.263-5.855-4.471-9.113-2.699c-3.262,1.771-4.47,5.851-2.699,9.113l2.661,4.901l-1.43,0.232
		c-7.835,1.272-13.155,8.655-11.884,16.49c1.268,7.805,8.616,13.156,16.49,11.884l50.367-8.176c3.389-0.55,6.471-2.296,8.684-4.922
		l30.008-35.587c1.727-2.049,4.003-3.494,6.512-4.235v246.279c0,9.525,7.722,17.247,17.247,17.247s17.247-7.722,17.247-17.247
		v-137.77h7.448v137.77c0,9.525,7.722,17.247,17.247,17.247s17.247-7.722,17.247-17.247V238.232h0.435
		c2.89,0,4.998,2.351,5.012,5.133v105.591c-0.018,7.938,6.4,14.388,14.339,14.408c0.012,0,0.023,0,0.036,0
		c7.921,0,14.353-6.412,14.372-14.339L411.144,243.329L411.144,243.329z"/>
</g>
<path style="fill:#53618C;" d="M300.514,347.313v137.77c0,9.525,7.722,17.247,17.247,17.247s17.247-7.722,17.247-17.247v-137.77
	H300.514z"/>
<path style="fill:#414B82;" d="M342.456,347.313v137.77c0,9.525,7.722,17.247,17.247,17.247s17.247-7.722,17.247-17.247v-137.77
	H342.456z"/>
<path style="fill:#64AFFF;" d="M377.386,209.486h-23.44c-0.012,8.537-7.276,15.795-15.815,15.795
	c-8.571,0-15.803-7.226-15.816-15.795h-17.972c-12.488,0-24.267,5.475-32.317,15.022l-16.731,19.841l20.525,20.252l18.182-21.562
	c1.727-2.049,4.003-3.494,6.512-4.235V347.24h76.436V238.232h0.435c2.89,0,4.998,2.351,5.012,5.133v32.744h28.746v-32.781
	C411.051,224.668,396.047,209.486,377.386,209.486z"/>
<g>
</g>
<g>
</g>
<g>
</g>
<g>
</g>
<g>
</g>
<g>
</g>
<g>
</g>
<g>
</g>
<g>
</g>
<g>
</g>
<g>
</g>
<g>
</g>
<g>
</g>
<g>
</g>
<g>
</g>
</svg>
