<?xml version="1.0" encoding="iso-8859-1"?>
<!-- Generator: Adobe Illustrator 19.0.0, SVG Export Plug-In . SVG Version: 6.00 Build 0)  -->
<svg version="1.1" id="Capa_1" xmlns="http://www.w3.org/2000/svg" xmlns:xlink="http://www.w3.org/1999/xlink" x="0px" y="0px"
	 viewBox="0 0 512 512" style="enable-background:new 0 0 512 512;" xml:space="preserve">
<g>
	<path style="fill:#E9D8AE;" d="M70,406c0-11.257,3.719-21.644,9.996-30H10v14.999C10,399.25,16.75,406,24.998,406H70z"/>
	<path style="fill:#786D7C;" d="M79.996,376C73.719,384.356,70,394.743,70,406c0,27.614,22.385,50,50,50c27.613,0,50-22.386,50-50
		c0-11.256-3.72-21.644-9.997-30c-9.122-12.145-23.646-20-40.003-20C103.642,356,89.118,363.855,79.996,376L79.996,376z M120,386
		c11.045,0,20,8.954,20,20c0,11.045-8.955,20-20,20c-11.046,0-20-8.955-20-20C100,394.954,108.954,386,120,386z"/>
	<circle style="fill:#E6E6E6;" cx="120" cy="406" r="20"/>
	<path style="fill:#E9D8AE;" d="M160.003,376c6.277,8.356,9.997,18.744,9.996,30h182c0-11.256,3.72-21.644,9.996-30h-71.922h-2.5
		H160.003z"/>
	<path style="fill:#786D7C;" d="M361.995,376c-6.276,8.356-9.996,18.744-9.996,30c0,27.614,22.386,50,50,50s50-22.386,50-50
		c0-11.256-3.719-21.644-9.996-30c-9.122-12.145-23.646-20-40.004-20S371.118,363.855,361.995,376L361.995,376z M401.999,386
		c11.046,0,20,8.954,20,20c0,11.045-8.954,20-20,20C390.954,426,382,417.045,382,406C382,394.954,390.954,386,401.999,386z"/>
	<circle style="fill:#E6E6E6;" cx="402" cy="406" r="20"/>
	<path style="fill:#E9D8AE;" d="M442.003,376c6.277,8.356,9.996,18.744,9.996,30H487c8.25,0,15-6.75,15-15.001V376h-15H442.003z"/>
	<path style="fill:#FF3D53;" d="M401.999,356c16.358,0,30.882,7.855,40.004,20H487v-40v-34.114v-12.138
		c0-12.375-9.008-21.95-20-22.5l-24.997-1.25l-30.001-70c-4.499-10.497-11.662-20-27.814-20h-94.115v117.648V376h71.922
		C371.118,363.855,385.641,356,401.999,356L401.999,356z M406.115,265.999h-83.13v-60.001h57.356
		c0.332,0.65,0.635,1.347,0.837,1.818L406.115,265.999z"/>
	<path style="fill:#BDE5F8;" d="M322.985,265.999h83.13l-24.936-58.183c-0.202-0.471-0.505-1.167-0.837-1.818h-57.356v60.001
		H322.985z"/>
	<path style="fill:#FF874F;" d="M290.073,293.647L61.323,64.898c11.604,11.724,11.568,30.636-0.11,42.314
		c-11.716,11.716-30.711,11.716-42.427,0L40,128.427L287.573,376h2.5V293.647z"/>
	<circle style="fill:#FF3D53;" cx="40" cy="85.999" r="30"/>
</g>
<path d="M502,366h-5v-76.251c0-17.39-12.958-31.66-29.501-32.488l-18.764-0.938l-27.542-64.264
	c-2.763-6.446-11.17-26.061-37.005-26.061h-94.115c-5.522,0-10,4.477-10,10v93.505L68.293,57.725
	c-0.003-0.003-0.006-0.007-0.009-0.01c-0.484-0.484-0.979-0.953-1.483-1.409c-0.044-0.039-0.089-0.075-0.132-0.114
	C59.325,49.606,49.94,46,39.999,46c-9.943,0-19.33,3.608-26.673,10.197c-0.042,0.038-0.086,0.073-0.128,0.11
	c-0.504,0.456-0.998,0.925-1.482,1.409C4.161,65.271,0,75.315,0,86c0,9.896,3.576,19.24,10.105,26.568
	c0.52,0.584,1.052,1.159,1.609,1.716L30,132.569v68.084c-17.233,4.452-30,20.13-30,38.734c0,22.056,17.944,40,40,40s40-17.944,40-40
	c0-5.523-4.477-10-10-10s-10,4.477-10,10c0,11.028-8.972,20-20,20s-20-8.972-20-20s8.972-20,20-20c5.523,0,10-4.477,10-10v-56.818
	L263.431,366h-98.756c-10.994-12.266-26.945-20.001-44.674-20.001S86.32,353.734,75.326,366H10c-5.523,0-10,4.477-10,10v14.999
	C0,404.784,11.214,416,24.998,416h35.851c4.777,28.339,29.475,50,59.151,50s54.375-21.661,59.152-50h163.696
	c4.776,28.339,29.475,50,59.151,50s54.374-21.661,59.15-50H487c13.785,0,25-11.216,25-25.001V376C512,370.477,507.522,366,502,366z
	 M402.81,199.939l30.001,70c1.505,3.51,4.878,5.857,8.692,6.048l24.996,1.25c5.888,0.294,10.5,5.79,10.5,12.512v2.138h-31.035
	c-5.522,0-10,4.477-10,10s4.478,10,10,10H477V326h-6.615c-5.522,0-10,4.477-10,10s4.478,10,10,10H477v20h-30.327
	c-10.994-12.266-26.945-20.001-44.674-20.001s-33.681,7.735-44.675,20.001h-57.251l0,0c0-0.003,0,0.003,0,0V185.999h84.115
	C393.408,185.999,398.455,189.777,402.81,199.939z M280.073,354.357L50.358,124.642c6.718-1.789,12.879-5.312,17.926-10.358
	c5.149-5.15,8.587-11.368,10.336-17.947L280.073,297.79V354.357z M39.999,66.037c5.365,0,10.388,2.067,14.142,5.821l0.004,0.005
	c7.793,7.798,7.792,20.482-0.004,28.279c-3.777,3.777-8.8,5.858-14.142,5.858s-10.364-2.08-14.142-5.858
	c-0.378-0.378-0.726-0.777-1.069-1.179c-3.068-3.597-4.753-8.137-4.753-12.962c0-5.366,2.068-10.388,5.822-14.143
	C29.612,68.104,34.634,66.037,39.999,66.037z M345.439,386c-1.142,3.217-2.011,6.559-2.591,10H179.152
	c-0.58-3.441-1.45-6.783-2.591-10H345.439z M20,390.999V386h43.44c-1.141,3.217-2.011,6.559-2.591,10H24.998
	C22.289,396,20,393.71,20,390.999z M120,446c-22.056,0-40-17.944-40-40c0-22.057,17.944-40.001,40-40.001
	c22.048,0,39.986,17.93,40,39.975c0,0.009-0.001,0.017-0.001,0.026s0.001,0.017,0.001,0.026C159.986,428.07,142.048,446,120,446z
	 M401.999,446c-22.048,0-39.986-17.931-40-39.975c0-0.009,0.001-0.017,0.001-0.026s-0.001-0.017-0.001-0.026
	c0.014-22.045,17.952-39.975,40-39.975c22.056,0,40,17.944,40,40.001S424.055,446,401.999,446z M492,390.999
	c0,2.711-2.29,5.001-5,5.001h-25.851c-0.579-3.441-1.45-6.783-2.591-10H492V390.999z"/>
<path d="M322.985,275.999h83.13c3.361,0,6.498-1.689,8.349-4.495s2.167-6.354,0.843-9.444l-24.939-58.19
	c-0.304-0.706-0.674-1.547-1.119-2.418c-1.708-3.347-5.148-5.453-8.906-5.453h-57.356c-5.523,0-10,4.477-10,10V266
	C312.985,271.522,317.463,275.999,322.985,275.999z M332.985,215.998h40.82l17.145,40.001h-57.965V215.998z"/>
<path d="M120,376c-16.542,0-30,13.458-30,30s13.458,30,30,30s30-13.458,30-30C150,389.457,136.542,376,120,376z M120,416
	c-5.514,0-10-4.486-10-10s4.486-10,10-10s10,4.486,10,10S125.514,416,120,416z"/>
<path d="M402,376c-16.542,0-30,13.458-30,30s13.458,30,30,30s30-13.458,30-30C432,389.457,418.542,376,402,376z M402,416
	c-5.514,0-10-4.486-10-10s4.486-10,10-10s10,4.486,10,10S407.514,416,402,416z"/>
<path d="M406.998,301.889c0,5.523,4.478,10,10,10h0.236c5.522,0,10-4.477,10-10s-4.478-10-10-10h-0.236
	C411.476,291.889,406.998,296.366,406.998,301.889z"/>
<g>
</g>
<g>
</g>
<g>
</g>
<g>
</g>
<g>
</g>
<g>
</g>
<g>
</g>
<g>
</g>
<g>
</g>
<g>
</g>
<g>
</g>
<g>
</g>
<g>
</g>
<g>
</g>
<g>
</g>
</svg>
