<?xml version="1.0" encoding="iso-8859-1"?>
<!-- Generator: Adobe Illustrator 19.0.0, SVG Export Plug-In . SVG Version: 6.00 Build 0)  -->
<svg version="1.1" id="Capa_1" xmlns="http://www.w3.org/2000/svg" xmlns:xlink="http://www.w3.org/1999/xlink" x="0px" y="0px"
	 viewBox="0 0 512 512" style="enable-background:new 0 0 512 512;" xml:space="preserve">
<path style="fill:#AEADB3;" d="M200.963,259.528c-2.535-3.943-4.93-7.668-7.084-11.547l-0.106-0.187
	c-13.729-23.9-27.623-47.301-41.057-69.932c-12.929-21.779-26.3-44.298-39.239-66.797l-4.322-7.515l-26.568,0.007l-0.25-0.136
	l-0.074,0.136h-0.362v0.667L0.623,254.285l26.347,14.271L81.901,167.14v90.476h29.964v-89.903
	c5.062,8.566,10.106,17.061,15.085,25.447c13.365,22.513,27.183,45.788,40.791,69.472c2.606,4.682,5.358,8.961,8.018,13.101
	c2.687,4.18,5.225,8.127,7.28,11.988l26.449-14.08C206.854,268.692,203.859,264.033,200.963,259.528z"/>
<path style="fill:#FFB74F;" d="M510.135,353.48l-14.638,45.155l-43.799-14.199l3.009-9.287l-52.163-16.91l-3.015,9.285L338.06,347.6
	l-60.899-19.74l3.009-9.287l-52.164-16.91l-3.009,9.287l-46.462-15.062l14.636-45.149c3.121-9.633,9.808-17.475,18.825-22.078
	c9.023-4.601,19.29-5.42,28.923-2.299c0,0,0,0,0.006,0.002l25.792,8.357l54.627-46.092l61.741,20.013l85.308,27.656l9.039,66.728
	l8.327,2.698c9.633,3.121,17.473,9.814,22.076,18.831C512.439,333.574,513.256,343.847,510.135,353.48z"/>
<path style="fill:#FF9A00;" d="M510.135,353.48l-14.638,45.155l-43.799-14.199l3.009-9.287l-52.163-16.91l-3.015,9.285L338.06,347.6
	l45.027-138.957l85.308,27.656l9.039,66.728l8.327,2.698c9.633,3.121,17.473,9.814,22.076,18.831
	C512.439,333.574,513.256,343.847,510.135,353.48z"/>
<polygon style="fill:#B8E0F8;" points="477.433,303.028 456.823,296.35 364.376,266.381 288.59,241.81 266.718,234.723 
	321.344,188.631 468.394,236.3 "/>
<path style="fill:#3C3A41;" d="M288.412,326.027c-3.198,9.848-10.099,17.484-18.662,21.851c-8.56,4.376-18.791,5.486-28.641,2.294
	c-9.546-3.093-17.311-9.721-21.867-18.653c-4.561-8.935-5.37-19.109-2.278-28.649c3.093-9.546,9.714-17.314,18.647-21.869
	c8.935-4.561,19.109-5.37,28.649-2.278l0.006,0.002c9.54,3.091,17.305,9.719,21.868,18.653
	C290.697,306.312,291.504,316.487,288.412,326.027z"/>
<path style="fill:#171719;" d="M462.943,382.601c-6.383,19.7-27.604,30.528-47.297,24.147c-0.006-0.002-0.006-0.002-0.006-0.002
	c-19.7-6.383-30.528-27.604-24.145-47.304c6.387-19.691,27.604-30.528,47.304-24.145c9.85,3.191,17.478,10.096,21.851,18.662
	C465.023,362.525,466.135,372.751,462.943,382.601z"/>
<polygon style="fill:#A3D9F6;" points="477.433,303.028 364.376,266.381 383.085,208.643 468.394,236.3 "/>
<path d="M69.357,404.309c-4.49,0-8.998-0.719-13.385-2.168c-10.79-3.564-19.546-11.116-24.656-21.266
	c-5.11-10.15-5.961-21.682-2.397-32.472c7.357-22.275,31.464-34.411,53.739-27.053c22.274,7.357,34.41,31.465,27.052,53.738l0,0
	c-3.564,10.79-11.116,19.546-21.266,24.657C82.421,402.777,75.91,404.309,69.357,404.309z M69.302,349.16
	c-1.938,0-3.862,0.453-5.643,1.35c-3,1.511-5.234,4.099-6.287,7.29c-1.054,3.19-0.802,6.6,0.709,9.6
	c1.51,3.001,4.099,5.234,7.289,6.287c3.191,1.053,6.6,0.803,9.601-0.709c3-1.51,5.234-4.099,6.287-7.289v-0.001
	c1.054-3.19,0.802-6.6-0.708-9.6c-1.51-3-4.099-5.234-7.29-6.288C71.963,349.373,70.63,349.16,69.302,349.16z"/>
<polygon style="fill:#0088FF;" points="138.453,278.928 138.453,242.632 0,242.632 0,257.614 0,272.596 0,346.766 0,361.748 
	0,376.73 41.75,376.73 41.75,361.748 96.883,361.748 96.883,376.73 170.794,376.73 170.794,278.928 "/>
<path style="fill:#3C3A41;" d="M111.855,361.778c0,4.415-0.689,8.899-2.147,13.314c-3.556,10.787-11.117,19.546-21.264,24.65
	c-6.023,3.036-12.535,4.564-19.087,4.564h-0.05c-4.465-0.01-8.969-0.729-13.334-2.167c-10.787-3.566-19.546-11.117-24.66-21.264
	c-5.104-10.148-5.953-21.684-2.397-32.471c5.893-17.838,22.553-29.185,40.391-29.205c4.425-0.01,8.929,0.689,13.354,2.147
	C100.518,327.25,111.855,343.92,111.855,361.778z"/>
<g>
</g>
<g>
</g>
<g>
</g>
<g>
</g>
<g>
</g>
<g>
</g>
<g>
</g>
<g>
</g>
<g>
</g>
<g>
</g>
<g>
</g>
<g>
</g>
<g>
</g>
<g>
</g>
<g>
</g>
</svg>
